<svg xmlns="http://www.w3.org/2000/svg" version="1.1" xmlns:xlink="http://www.w3.org/1999/xlink" xmlns:svgjs="http://svgjs.dev/svgjs" width="1440" height="560" preserveAspectRatio="none" viewBox="0 0 1440 560"><g mask="url(&quot;#SvgjsMask1000&quot;)" fill="none"><rect width="1440" height="560" x="0" y="0" fill="#0e2a47"></rect><path d="M0,553.412C102.273,554.322,181.365,471.388,267.48,416.208C353.719,360.948,464.591,324.72,504.266,230.291C543.783,136.238,504.801,28.493,470.794,-67.69C441.456,-150.667,374.465,-208.589,323.68,-280.47C266.086,-361.987,239.079,-469.306,152.258,-518.542C58.137,-571.918,-62.78,-596.343,-163.472,-556.735C-262.814,-517.658,-296.357,-397.995,-364.045,-315.447C-429.431,-235.706,-550.748,-182.788,-554.599,-79.739C-558.502,24.701,-435.513,84.631,-382.358,174.617C-336.575,252.124,-328.388,348.12,-264.438,411.474C-191.899,483.337,-102.105,552.503,0,553.412" fill="#0b2239"></path><path d="M1440 905.858C1513.908 913.511 1596.525 940.971 1658.307 899.692 1720.065 858.428 1715.9189999999999 767.657 1747.475 700.419 1779.468 632.25 1861.132 575.33 1845.063 501.761 1828.786 427.23900000000003 1735.886 401.128 1672.754 358.317 1625.1 326.002 1574.613 304.64599999999996 1521.522 282.361 1461.081 256.991 1405.158 214.44400000000002 1339.737 218.53500000000003 1267.784 223.034 1195.6109999999999 252.89299999999997 1146.6390000000001 305.802 1097.0529999999999 359.374 1086.656 435.545 1072.576 507.172 1057.791 582.385 1028.325 663.8 1062.807 732.258 1097.126 800.392 1179.636 825.405 1248.937 857.3 1309.865 885.342 1373.286 898.95 1440 905.858" fill="#113255"></path></g><defs><mask id="SvgjsMask1000"><rect width="1440" height="560" fill="#ffffff"></rect></mask></defs></svg>