<svg xmlns="http://www.w3.org/2000/svg" version="1.1" xmlns:xlink="http://www.w3.org/1999/xlink" xmlns:svgjs="http://svgjs.dev/svgjs" width="1440" height="560" preserveAspectRatio="none" viewBox="0 0 1440 560"><g mask="url(&quot;#SvgjsMask1002&quot;)" fill="none"><rect width="1440" height="560" x="0" y="0" fill="url(&quot;#SvgjsLinearGradient1003&quot;)"></rect><path d="M1440 0L1008.3399999999999 0L1440 52.02z" fill="rgba(255, 255, 255, .1)"></path><path d="M1008.3399999999999 0L1440 52.02L1440 331.16999999999996L956.42 0z" fill="rgba(255, 255, 255, .075)"></path><path d="M956.42 0L1440 331.16999999999996L1440 450.15L856.37 0z" fill="rgba(255, 255, 255, .05)"></path><path d="M856.37 0L1440 450.15L1440 526.3299999999999L548.39 0z" fill="rgba(255, 255, 255, .025)"></path><path d="M0 560L586.86 560L0 545.07z" fill="rgba(0, 0, 0, .1)"></path><path d="M0 545.07L586.86 560L904.74 560L0 297.5400000000001z" fill="rgba(0, 0, 0, .075)"></path><path d="M0 297.54L904.74 560L917.23 560L0 154.08z" fill="rgba(0, 0, 0, .05)"></path><path d="M0 154.08000000000004L917.23 560L1184.18 560L0 58.23000000000005z" fill="rgba(0, 0, 0, .025)"></path></g><defs><mask id="SvgjsMask1002"><rect width="1440" height="560" fill="#ffffff"></rect></mask><linearGradient x1="15.28%" y1="-39.29%" x2="84.72%" y2="139.29%" gradientUnits="userSpaceOnUse" id="SvgjsLinearGradient1003"><stop stop-color="#0e2a47" offset="0"></stop><stop stop-color="#00459e" offset="1"></stop></linearGradient></defs></svg>