<svg xmlns="http://www.w3.org/2000/svg" version="1.1" xmlns:xlink="http://www.w3.org/1999/xlink" xmlns:svgjs="http://svgjs.dev/svgjs" width="1440" height="560" preserveAspectRatio="none" viewBox="0 0 1440 560"><g mask="url(&quot;#SvgjsMask1000&quot;)" fill="none"><rect width="1440" height="560" x="0" y="0" fill="#0e2a47"></rect><path d="M54.04 140C55.97 76.81 -16.79 36.72 5.75 0C26.19 -33.28 72.88 0 140 0C192.69 0 199.56 -14.24 245.38 0C269.56 7.51 261.07 43.51 280 43.51C301.72 43.51 298.25 8.83 326.67 0C368.25 -12.92 373.34 0 420 0C490 0 490 0 560 0C614.44 0 632.11 -24.52 668.89 0C702.11 22.15 666.04 85.19 700 93.33C751.59 105.7 777.14 76.15 840 41.03C860.67 29.48 845.83 6.22 867.05 0C915.83 -14.3 923.53 0 980 0C1048.08 0 1048.86 -1.87 1116.16 0C1118.86 0.08 1118 3.89 1120 3.89C1122.18 3.89 1121.57 0.08 1124.52 0C1191.57 -1.86 1192.26 0 1260 0C1330 0 1330 0 1400 0C1453.79 0 1507.58 -25.02 1507.58 0C1507.58 38.85 1458.17 70.15 1400 127.75C1387.48 140.15 1366.21 130.55 1366.21 140C1366.21 151.99 1385.1 153.44 1400 170.63C1445.75 223.44 1444.78 224.53 1487.5 280C1514.78 315.42 1525.05 312.54 1540 352.41C1551.3 382.54 1540 386.21 1540 420C1540 490 1570 520 1540 560C1517.5 590 1453.16 589.83 1435 560C1410.55 519.83 1466.7 480.32 1454.78 420C1449.2 391.79 1431.07 385.97 1400 382.94C1333.68 376.47 1328.93 387.64 1260 400.99C1233.27 406.17 1208.67 399.53 1208.67 420C1208.67 468.27 1233.17 479.82 1260 538.46C1265.2 549.82 1272.73 552.86 1272.73 560C1272.73 563.63 1266.36 560 1260 560C1190 560 1190 560 1120 560C1050 560 1050 560 980 560C910 560 910 560 840 560C770 560 770 560 700 560C630 560 630 560 560 560C490 560 490 560 420 560C350 560 350 560 280 560C232.06 560 227.69 571.79 184.11 560C157.69 552.85 163.13 539.71 140 522.12C71.07 469.71 70 471.06 0 420C0 420 0 420 0 420C0 350 0 350 0 280C0 234.07 -15.11 227.29 0 188.13C11.91 157.29 53.1 170.88 54.04 140" stroke="rgba(51, 121, 194, 0.58)" stroke-width="2"></path><path d="M140 224.48C117.74 224.48 90.46 254.59 90.46 280C90.46 301.29 117.02 317.88 140 317.88C158.73 317.88 173.89 300.48 173.89 280C173.89 253.78 159.46 224.48 140 224.48" stroke="rgba(51, 121, 194, 0.58)" stroke-width="2"></path><path d="M560 244.63C532.74 250.22 532.26 257.8 513.97 280C462.26 342.74 482.71 384.82 420 414.51C365.73 440.2 345.99 388.67 280 390.77C259.57 391.42 247.16 404.25 247.16 420C247.16 438.14 257.38 457.19 280 458.55C343.8 462.38 349.88 431.05 420 430.37C489.88 429.7 489.5 447.24 560 455.85C629.5 464.33 630.01 464.67 700 464.55C770.01 464.43 771.09 448.58 840 455.37C911.09 462.37 918.51 502.67 980 492.12C1021.56 484.99 1046.11 457.12 1046.11 420C1046.11 380.02 1024.19 353.26 980 337.93C921.13 317.51 905.7 362.93 840 348.51C773.77 333.97 770.29 321.26 716.15 280C700.29 267.92 717.83 245.86 700 241.82C639.76 228.17 625.76 231.13 560 244.63" stroke="rgba(51, 121, 194, 0.58)" stroke-width="2"></path><path d="M1120 272.43C1103.61 272.43 1085 272.71 1085 280C1085 288.67 1106.68 304.35 1120 304.35C1127.97 304.35 1127.57 291.24 1127.57 280C1127.57 275.28 1124.9 272.43 1120 272.43" stroke="rgba(51, 121, 194, 0.58)" stroke-width="2"></path><path d="M115.44 140C80.22 73.01 45.85 44.76 53.7 0C58.13 -25.24 96.85 0 140 0C173.87 0 181.94 -16.73 207.74 0C251.94 28.67 240.5 90.81 280 90.81C325.32 90.81 324.36 34.4 377.39 0C394.36 -11.01 398.69 0 420 0C490 0 490 0 560 0C590.14 0 605.36 -20.44 620.28 0C656.47 49.56 678.61 83.51 662.22 140C648.47 187.41 609.89 172.19 560 207.79C511.8 242.19 507.74 238.86 466.03 280C437.74 307.9 453.9 332.7 420 345.88C360.88 368.86 341.03 371.52 280 352.31C236.4 338.58 240.45 319.94 210.74 280C170.45 225.85 178.01 219.98 140 164.14C130.36 149.98 123.37 155.08 115.44 140" stroke="rgba(51, 121, 194, 0.58)" stroke-width="2"></path><path d="M772.12 140C772.12 111.04 813.64 128.78 840 101.38C880.99 58.78 863.14 31.63 906.82 0C933.14 -19.06 943.41 0 980 0C1024.11 0 1030.09 -14.3 1068.22 0C1100.09 11.95 1093.04 52.5 1120 52.5C1149.42 52.5 1145.66 13.24 1180.97 0C1215.66 -13.01 1220.49 0 1260 0C1330 0 1330 0 1400 0C1435.37 0 1470.74 -16.45 1470.74 0C1470.74 25.55 1445.05 56.43 1400 84C1339.68 120.91 1327.87 103.4 1260 128.95C1253.49 131.4 1251.25 134.73 1251.25 140C1251.25 144.63 1255.49 144.51 1260 148.75C1329.87 214.51 1400 223.03 1400 280C1400 327.55 1325.45 357.78 1260 357.78C1212.88 357.78 1216.71 319.65 1174.86 280C1146.71 253.33 1149.55 250.16 1120 225.14C1066.86 180.16 1063.47 184.02 1009.47 140C993.47 126.96 997.12 111.03 980 111.03C952.39 111.03 941.74 116.18 920 140C871.74 192.89 877.76 264.44 840 264.44C803.82 264.44 772.12 192.57 772.12 140" stroke="rgba(51, 121, 194, 0.58)" stroke-width="2"></path><path d="M0 242.81C10.69 242.81 36.62 259.53 36.62 280C36.62 306.46 9.95 336.67 0 336.67C-8.36 336.67 0 308.34 0 280C0 261.4 -7.62 242.81 0 242.81" stroke="rgba(51, 121, 194, 0.58)" stroke-width="2"></path><path d="M56.45 420C56.45 389.53 100.23 359.06 140 359.06C173.98 359.06 203.95 389.53 203.95 420C203.95 450.47 173.98 480.94 140 480.94C100.23 480.94 56.45 450.47 56.45 420" stroke="rgba(51, 121, 194, 0.58)" stroke-width="2"></path><path d="M232.05 560C232.05 544.97 250.01 509.28 280 509.28C343.98 509.28 420 546.93 420 560C420 572.29 350 560 280 560C256.02 560 232.05 570.33 232.05 560" stroke="rgba(51, 121, 194, 0.58)" stroke-width="2"></path><path d="M420 560C420 543.96 488.68 502.59 560 498.54C628.68 494.64 630.49 545.66 700 544.09C770.49 542.5 772.56 488.04 840 492.21C901.11 495.99 957.09 541.83 957.09 560C957.09 575.72 898.55 560 840 560C770 560 770 560 700 560C630 560 630 560 560 560C490 560 420 574.69 420 560" stroke="rgba(51, 121, 194, 0.58)" stroke-width="2"></path><path d="M1006.25 560C1006.25 523.97 1066.93 438.67 1120 438.67C1167.84 438.67 1208.06 521.78 1208.06 560C1208.06 582.45 1164.03 560 1120 560C1063.13 560 1006.25 584.64 1006.25 560" stroke="rgba(51, 121, 194, 0.58)" stroke-width="2"></path><path d="M1478.75 560C1478.75 524.46 1523.6 453.48 1540 453.48C1554.22 453.48 1559.44 526.18 1540 560C1528.82 579.44 1478.75 577.72 1478.75 560" stroke="rgba(51, 121, 194, 0.58)" stroke-width="2"></path><path d="M140 80C122.56 80 101.64 27.93 101.64 0C101.64 -12.07 120.82 0 140 0C155.06 0 170.11 -10.42 170.11 0C170.11 29.58 156.8 80 140 80" stroke="rgba(51, 121, 194, 0.58)" stroke-width="2"></path><path d="M271.25 140C272.21 135.79 275.56 138.11 280 138.11C291.6 138.11 295.56 131.77 303.33 140C362.52 202.72 420.48 231.01 413.91 280C408.82 317.93 342.09 313.85 280 313.85C258.93 313.85 248.67 301.57 247.58 280C244.29 214.65 256 206.74 271.25 140" stroke="rgba(51, 121, 194, 0.58)" stroke-width="2"></path><path d="M446.92 140C423.84 93.03 440.38 44.1 476 0C496.92 -25.9 518 0 560 0C565.84 0 569.92 -5.24 571.67 0C593.26 64.76 610.87 78.42 606.67 140C605.04 163.9 585.82 170.95 560 170.95C505.94 170.95 465.84 178.51 446.92 140" stroke="rgba(51, 121, 194, 0.58)" stroke-width="2"></path><path d="M980 50.69C962.17 50.69 946.59 16.35 946.59 0C946.59 -9 963.3 0 980 0C1000.13 0 1020.27 -9.72 1020.27 0C1020.27 15.63 999.01 50.69 980 50.69" stroke="rgba(51, 121, 194, 0.58)" stroke-width="2"></path><path d="M1070.88 140C1070.88 120.72 1094.65 101.11 1120 101.11C1148.37 101.11 1178.33 120.74 1178.33 140C1178.33 159.1 1148.4 177.84 1120 177.84C1094.67 177.84 1070.88 159.08 1070.88 140" stroke="rgba(51, 121, 194, 0.58)" stroke-width="2"></path><path d="M1260 36.84C1240.83 32.09 1237.42 12.1 1237.42 0C1237.42 -6.32 1248.71 0 1260 0C1330 0 1330 0 1400 0C1416.95 0 1433.89 -7.88 1433.89 0C1433.89 12.24 1423.75 35.22 1400 40.25C1336.8 53.64 1322.12 52.22 1260 36.84" stroke="rgba(51, 121, 194, 0.58)" stroke-width="2"></path><path d="M1222.16 280C1222.16 253.26 1237.53 221.67 1260 221.67C1287.56 221.67 1322.22 254.68 1322.22 280C1322.22 301.13 1289.09 314.57 1260 314.57C1239.06 314.57 1222.16 299.71 1222.16 280" stroke="rgba(51, 121, 194, 0.58)" stroke-width="2"></path><path d="M112.9 420C112.9 410.12 127.1 400.24 140 400.24C151.02 400.24 160.74 410.12 160.74 420C160.74 429.88 151.02 439.76 140 439.76C127.1 439.76 112.9 429.88 112.9 420" stroke="rgba(51, 121, 194, 0.58)" stroke-width="2"></path><path d="M517.22 560C517.22 555.1 538.36 541.22 560 541.22C584.59 541.22 609.68 555.15 609.68 560C609.68 564.54 584.84 560 560 560C538.61 560 517.22 564.49 517.22 560" stroke="rgba(51, 121, 194, 0.58)" stroke-width="2"></path><path d="M768.29 560C768.29 551.93 805.05 529.05 840 529.05C867.63 529.05 893.45 551.7 893.45 560C893.45 567.18 866.72 560 840 560C804.14 560 768.29 567.41 768.29 560" stroke="rgba(51, 121, 194, 0.58)" stroke-width="2"></path><path d="M1079.17 560C1079.17 547.07 1100.95 516.44 1120 516.44C1137.17 516.44 1151.61 546.28 1151.61 560C1151.61 568.06 1135.8 560 1120 560C1099.59 560 1079.17 568.85 1079.17 560" stroke="rgba(51, 121, 194, 0.58)" stroke-width="2"></path><path d="M1522.5 560C1522.5 549.85 1535.31 529.57 1540 529.57C1544.06 529.57 1545.56 550.34 1540 560C1536.81 565.56 1522.5 565.06 1522.5 560" stroke="rgba(51, 121, 194, 0.58)" stroke-width="2"></path></g><defs><mask id="SvgjsMask1000"><rect width="1440" height="560" fill="#ffffff"></rect></mask></defs></svg>