<svg xmlns="http://www.w3.org/2000/svg" version="1.1" xmlns:xlink="http://www.w3.org/1999/xlink" xmlns:svgjs="http://svgjs.dev/svgjs" width="1440" height="560" preserveAspectRatio="none" viewBox="0 0 1440 560"><g mask="url(&quot;#SvgjsMask1000&quot;)" fill="none"><rect width="1440" height="560" x="0" y="0" fill="#0e2a47"></rect><path d="M-86.04 374.3L-86.04 374.3" stroke="#132e65" stroke-width="1.5"></path><path d="M-86.04 374.3L-65.6 529.99" stroke="#132e65" stroke-width="1.5"></path><path d="M-86.04 374.3L84.41 341.21" stroke="#132e65" stroke-width="1.5"></path><path d="M-86.04 374.3L78.23 557.54" stroke="#132e65" stroke-width="1.5"></path><path d="M-65.6 529.99L-65.6 529.99" stroke="#132e65" stroke-width="1.5"></path><path d="M-65.6 529.99L78.23 557.54" stroke="#132e65" stroke-width="1.5"></path><path d="M-69.94 704.41L-69.94 704.41" stroke="#132e65" stroke-width="1.5"></path><path d="M-69.94 704.41L-65.6 529.99" stroke="#132e65" stroke-width="1.5"></path><path d="M-69.94 704.41L78.23 557.54" stroke="#132e65" stroke-width="1.5"></path><path d="M-69.94 704.41L200.94 670.36" stroke="#132e65" stroke-width="1.5"></path><path d="M-69.94 704.41L-86.04 374.3" stroke="#132e65" stroke-width="1.5"></path><path d="M-69.94 704.41L261.13 499.42" stroke="#132e65" stroke-width="1.5"></path><path d="M84.41 341.21L84.41 341.21" stroke="#132e65" stroke-width="1.5"></path><path d="M84.41 341.21L198.31 357.9" stroke="#132e65" stroke-width="1.5"></path><path d="M84.41 341.21L78.23 557.54" stroke="#132e65" stroke-width="1.5"></path><path d="M84.41 341.21L261.13 499.42" stroke="#132e65" stroke-width="1.5"></path><path d="M78.23 557.54L78.23 557.54" stroke="#132e65" stroke-width="1.5"></path><path d="M78.23 557.54L200.94 670.36" stroke="#132e65" stroke-width="1.5"></path><path d="M78.23 557.54L261.13 499.42" stroke="#132e65" stroke-width="1.5"></path><path d="M198.31 357.9L198.31 357.9" stroke="#132e65" stroke-width="1.5"></path><path d="M198.31 357.9L261.13 499.42" stroke="#132e65" stroke-width="1.5"></path><path d="M261.13 499.42L261.13 499.42" stroke="#132e65" stroke-width="1.5"></path><path d="M261.13 499.42L338.22 521.13" stroke="#132e65" stroke-width="1.5"></path><path d="M261.13 499.42L200.94 670.36" stroke="#132e65" stroke-width="1.5"></path><path d="M200.94 670.36L200.94 670.36" stroke="#132e65" stroke-width="1.5"></path><path d="M200.94 670.36L352.03 677.64" stroke="#132e65" stroke-width="1.5"></path><path d="M379.65 341.22L379.65 341.22" stroke="#132e65" stroke-width="1.5"></path><path d="M379.65 341.22L490.31 340.77" stroke="#132e65" stroke-width="1.5"></path><path d="M379.65 341.22L198.31 357.9" stroke="#132e65" stroke-width="1.5"></path><path d="M338.22 521.13L338.22 521.13" stroke="#132e65" stroke-width="1.5"></path><path d="M338.22 521.13L352.03 677.64" stroke="#132e65" stroke-width="1.5"></path><path d="M338.22 521.13L379.65 341.22" stroke="#132e65" stroke-width="1.5"></path><path d="M338.22 521.13L536.01 528.67" stroke="#132e65" stroke-width="1.5"></path><path d="M338.22 521.13L200.94 670.36" stroke="#132e65" stroke-width="1.5"></path><path d="M338.22 521.13L198.31 357.9" stroke="#132e65" stroke-width="1.5"></path><path d="M352.03 677.64L352.03 677.64" stroke="#132e65" stroke-width="1.5"></path><path d="M352.03 677.64L507.02 683.8" stroke="#132e65" stroke-width="1.5"></path><path d="M490.31 340.77L490.31 340.77" stroke="#132e65" stroke-width="1.5"></path><path d="M490.31 340.77L637.72 343.9" stroke="#132e65" stroke-width="1.5"></path><path d="M490.31 340.77L642.17 243.54" stroke="#132e65" stroke-width="1.5"></path><path d="M490.31 340.77L536.01 528.67" stroke="#132e65" stroke-width="1.5"></path><path d="M536.01 528.67L536.01 528.67" stroke="#132e65" stroke-width="1.5"></path><path d="M536.01 528.67L654.95 510.83" stroke="#132e65" stroke-width="1.5"></path><path d="M536.01 528.67L507.02 683.8" stroke="#132e65" stroke-width="1.5"></path><path d="M507.02 683.8L507.02 683.8" stroke="#132e65" stroke-width="1.5"></path><path d="M507.02 683.8L704.53 650.23" stroke="#132e65" stroke-width="1.5"></path><path d="M507.02 683.8L654.95 510.83" stroke="#132e65" stroke-width="1.5"></path><path d="M507.02 683.8L338.22 521.13" stroke="#132e65" stroke-width="1.5"></path><path d="M507.02 683.8L200.94 670.36" stroke="#132e65" stroke-width="1.5"></path><path d="M642.17 243.54L642.17 243.54" stroke="#132e65" stroke-width="1.5"></path><path d="M642.17 243.54L637.72 343.9" stroke="#132e65" stroke-width="1.5"></path><path d="M642.17 243.54L848.95 207.01" stroke="#132e65" stroke-width="1.5"></path><path d="M642.17 243.54L855.27 106.45" stroke="#132e65" stroke-width="1.5"></path><path d="M642.17 243.54L840.78 408.19" stroke="#132e65" stroke-width="1.5"></path><path d="M642.17 243.54L654.95 510.83" stroke="#132e65" stroke-width="1.5"></path><path d="M637.72 343.9L637.72 343.9" stroke="#132e65" stroke-width="1.5"></path><path d="M637.72 343.9L654.95 510.83" stroke="#132e65" stroke-width="1.5"></path><path d="M654.95 510.83L654.95 510.83" stroke="#132e65" stroke-width="1.5"></path><path d="M654.95 510.83L704.53 650.23" stroke="#132e65" stroke-width="1.5"></path><path d="M704.53 650.23L704.53 650.23" stroke="#132e65" stroke-width="1.5"></path><path d="M704.53 650.23L831.96 678.49" stroke="#132e65" stroke-width="1.5"></path><path d="M704.53 650.23L839.58 526.3" stroke="#132e65" stroke-width="1.5"></path><path d="M704.53 650.23L536.01 528.67" stroke="#132e65" stroke-width="1.5"></path><path d="M704.53 650.23L939.38 669.78" stroke="#132e65" stroke-width="1.5"></path><path d="M855.27 106.45L855.27 106.45" stroke="#132e65" stroke-width="1.5"></path><path d="M855.27 106.45L848.95 207.01" stroke="#132e65" stroke-width="1.5"></path><path d="M855.27 106.45L957.03 92.72" stroke="#132e65" stroke-width="1.5"></path><path d="M855.27 106.45L959.3 188.98" stroke="#132e65" stroke-width="1.5"></path><path d="M855.27 106.45L938.64 -43.73" stroke="#132e65" stroke-width="1.5"></path><path d="M855.27 106.45L1114.81 79.32" stroke="#132e65" stroke-width="1.5"></path><path d="M848.95 207.01L848.95 207.01" stroke="#132e65" stroke-width="1.5"></path><path d="M848.95 207.01L959.3 188.98" stroke="#132e65" stroke-width="1.5"></path><path d="M840.78 408.19L840.78 408.19" stroke="#132e65" stroke-width="1.5"></path><path d="M840.78 408.19L953.38 384.46" stroke="#132e65" stroke-width="1.5"></path><path d="M840.78 408.19L839.58 526.3" stroke="#132e65" stroke-width="1.5"></path><path d="M840.78 408.19L969.71 551.74" stroke="#132e65" stroke-width="1.5"></path><path d="M840.78 408.19L848.95 207.01" stroke="#132e65" stroke-width="1.5"></path><path d="M839.58 526.3L839.58 526.3" stroke="#132e65" stroke-width="1.5"></path><path d="M839.58 526.3L969.71 551.74" stroke="#132e65" stroke-width="1.5"></path><path d="M839.58 526.3L831.96 678.49" stroke="#132e65" stroke-width="1.5"></path><path d="M839.58 526.3L939.38 669.78" stroke="#132e65" stroke-width="1.5"></path><path d="M839.58 526.3L953.38 384.46" stroke="#132e65" stroke-width="1.5"></path><path d="M831.96 678.49L831.96 678.49" stroke="#132e65" stroke-width="1.5"></path><path d="M831.96 678.49L939.38 669.78" stroke="#132e65" stroke-width="1.5"></path><path d="M831.96 678.49L969.71 551.74" stroke="#132e65" stroke-width="1.5"></path><path d="M831.96 678.49L654.95 510.83" stroke="#132e65" stroke-width="1.5"></path><path d="M938.64 -43.73L938.64 -43.73" stroke="#132e65" stroke-width="1.5"></path><path d="M938.64 -43.73L957.03 92.72" stroke="#132e65" stroke-width="1.5"></path><path d="M938.64 -43.73L1088.6 -42.84" stroke="#132e65" stroke-width="1.5"></path><path d="M938.64 -43.73L1114.81 79.32" stroke="#132e65" stroke-width="1.5"></path><path d="M938.64 -43.73L959.3 188.98" stroke="#132e65" stroke-width="1.5"></path><path d="M957.03 92.72L957.03 92.72" stroke="#132e65" stroke-width="1.5"></path><path d="M957.03 92.72L959.3 188.98" stroke="#132e65" stroke-width="1.5"></path><path d="M957.03 92.72L848.95 207.01" stroke="#132e65" stroke-width="1.5"></path><path d="M957.03 92.72L1114.81 79.32" stroke="#132e65" stroke-width="1.5"></path><path d="M957.03 92.72L1088.6 -42.84" stroke="#132e65" stroke-width="1.5"></path><path d="M959.3 188.98L959.3 188.98" stroke="#132e65" stroke-width="1.5"></path><path d="M953.38 384.46L953.38 384.46" stroke="#132e65" stroke-width="1.5"></path><path d="M953.38 384.46L1100.65 358.9" stroke="#132e65" stroke-width="1.5"></path><path d="M953.38 384.46L969.71 551.74" stroke="#132e65" stroke-width="1.5"></path><path d="M953.38 384.46L959.3 188.98" stroke="#132e65" stroke-width="1.5"></path><path d="M969.71 551.74L969.71 551.74" stroke="#132e65" stroke-width="1.5"></path><path d="M969.71 551.74L939.38 669.78" stroke="#132e65" stroke-width="1.5"></path><path d="M969.71 551.74L1091.45 663.71" stroke="#132e65" stroke-width="1.5"></path><path d="M969.71 551.74L1142.58 530.14" stroke="#132e65" stroke-width="1.5"></path><path d="M939.38 669.78L939.38 669.78" stroke="#132e65" stroke-width="1.5"></path><path d="M939.38 669.78L1091.45 663.71" stroke="#132e65" stroke-width="1.5"></path><path d="M1088.6 -42.84L1088.6 -42.84" stroke="#132e65" stroke-width="1.5"></path><path d="M1088.6 -42.84L1114.81 79.32" stroke="#132e65" stroke-width="1.5"></path><path d="M1088.6 -42.84L1291.89 -110.31" stroke="#132e65" stroke-width="1.5"></path><path d="M1114.81 79.32L1114.81 79.32" stroke="#132e65" stroke-width="1.5"></path><path d="M1114.81 79.32L1302.25 53.49" stroke="#132e65" stroke-width="1.5"></path><path d="M1114.81 79.32L959.3 188.98" stroke="#132e65" stroke-width="1.5"></path><path d="M1100.65 358.9L1100.65 358.9" stroke="#132e65" stroke-width="1.5"></path><path d="M1100.65 358.9L1270.22 391.11" stroke="#132e65" stroke-width="1.5"></path><path d="M1100.65 358.9L1142.58 530.14" stroke="#132e65" stroke-width="1.5"></path><path d="M1100.65 358.9L1251.19 215.32" stroke="#132e65" stroke-width="1.5"></path><path d="M1100.65 358.9L959.3 188.98" stroke="#132e65" stroke-width="1.5"></path><path d="M1100.65 358.9L969.71 551.74" stroke="#132e65" stroke-width="1.5"></path><path d="M1142.58 530.14L1142.58 530.14" stroke="#132e65" stroke-width="1.5"></path><path d="M1142.58 530.14L1091.45 663.71" stroke="#132e65" stroke-width="1.5"></path><path d="M1142.58 530.14L1306.79 556.51" stroke="#132e65" stroke-width="1.5"></path><path d="M1091.45 663.71L1091.45 663.71" stroke="#132e65" stroke-width="1.5"></path><path d="M1291.89 -110.31L1291.89 -110.31" stroke="#132e65" stroke-width="1.5"></path><path d="M1291.89 -110.31L1302.25 53.49" stroke="#132e65" stroke-width="1.5"></path><path d="M1291.89 -110.31L1449.92 -40.74" stroke="#132e65" stroke-width="1.5"></path><path d="M1302.25 53.49L1302.25 53.49" stroke="#132e65" stroke-width="1.5"></path><path d="M1302.25 53.49L1445.45 87.34" stroke="#132e65" stroke-width="1.5"></path><path d="M1302.25 53.49L1251.19 215.32" stroke="#132e65" stroke-width="1.5"></path><path d="M1302.25 53.49L1449.92 -40.74" stroke="#132e65" stroke-width="1.5"></path><path d="M1302.25 53.49L1419.32 215.28" stroke="#132e65" stroke-width="1.5"></path><path d="M1251.19 215.32L1251.19 215.32" stroke="#132e65" stroke-width="1.5"></path><path d="M1251.19 215.32L1419.32 215.28" stroke="#132e65" stroke-width="1.5"></path><path d="M1251.19 215.32L1270.22 391.11" stroke="#132e65" stroke-width="1.5"></path><path d="M1251.19 215.32L1114.81 79.32" stroke="#132e65" stroke-width="1.5"></path><path d="M1270.22 391.11L1270.22 391.11" stroke="#132e65" stroke-width="1.5"></path><path d="M1270.22 391.11L1306.79 556.51" stroke="#132e65" stroke-width="1.5"></path><path d="M1270.22 391.11L1439.77 411.95" stroke="#132e65" stroke-width="1.5"></path><path d="M1306.79 556.51L1306.79 556.51" stroke="#132e65" stroke-width="1.5"></path><path d="M1306.79 556.51L1413.77 493.75" stroke="#132e65" stroke-width="1.5"></path><path d="M1449.92 -40.74L1449.92 -40.74" stroke="#132e65" stroke-width="1.5"></path><path d="M1449.92 -40.74L1445.45 87.34" stroke="#132e65" stroke-width="1.5"></path><path d="M1449.92 -40.74L1575.49 -91.41" stroke="#132e65" stroke-width="1.5"></path><path d="M1449.92 -40.74L1575.91 46.5" stroke="#132e65" stroke-width="1.5"></path><path d="M1445.45 87.34L1445.45 87.34" stroke="#132e65" stroke-width="1.5"></path><path d="M1445.45 87.34L1419.32 215.28" stroke="#132e65" stroke-width="1.5"></path><path d="M1445.45 87.34L1575.91 46.5" stroke="#132e65" stroke-width="1.5"></path><path d="M1419.32 215.28L1419.32 215.28" stroke="#132e65" stroke-width="1.5"></path><path d="M1419.32 215.28L1612.18 216.74" stroke="#132e65" stroke-width="1.5"></path><path d="M1439.77 411.95L1439.77 411.95" stroke="#132e65" stroke-width="1.5"></path><path d="M1439.77 411.95L1413.77 493.75" stroke="#132e65" stroke-width="1.5"></path><path d="M1439.77 411.95L1602.77 368.23" stroke="#132e65" stroke-width="1.5"></path><path d="M1439.77 411.95L1601.16 515.49" stroke="#132e65" stroke-width="1.5"></path><path d="M1439.77 411.95L1306.79 556.51" stroke="#132e65" stroke-width="1.5"></path><path d="M1413.77 493.75L1413.77 493.75" stroke="#132e65" stroke-width="1.5"></path><path d="M1411.84 711.46L1411.84 711.46" stroke="#132e65" stroke-width="1.5"></path><path d="M1411.84 711.46L1578.83 701.23" stroke="#132e65" stroke-width="1.5"></path><path d="M1411.84 711.46L1306.79 556.51" stroke="#132e65" stroke-width="1.5"></path><path d="M1411.84 711.46L1413.77 493.75" stroke="#132e65" stroke-width="1.5"></path><path d="M1575.49 -91.41L1575.49 -91.41" stroke="#132e65" stroke-width="1.5"></path><path d="M1575.49 -91.41L1575.91 46.5" stroke="#132e65" stroke-width="1.5"></path><path d="M1575.49 -91.41L1445.45 87.34" stroke="#132e65" stroke-width="1.5"></path><path d="M1575.49 -91.41L1291.89 -110.31" stroke="#132e65" stroke-width="1.5"></path><path d="M1575.91 46.5L1575.91 46.5" stroke="#132e65" stroke-width="1.5"></path><path d="M1575.91 46.5L1612.18 216.74" stroke="#132e65" stroke-width="1.5"></path><path d="M1612.18 216.74L1612.18 216.74" stroke="#132e65" stroke-width="1.5"></path><path d="M1612.18 216.74L1602.77 368.23" stroke="#132e65" stroke-width="1.5"></path><path d="M1612.18 216.74L1445.45 87.34" stroke="#132e65" stroke-width="1.5"></path><path d="M1602.77 368.23L1602.77 368.23" stroke="#132e65" stroke-width="1.5"></path><path d="M1602.77 368.23L1601.16 515.49" stroke="#132e65" stroke-width="1.5"></path><path d="M1602.77 368.23L1413.77 493.75" stroke="#132e65" stroke-width="1.5"></path><path d="M1602.77 368.23L1419.32 215.28" stroke="#132e65" stroke-width="1.5"></path><path d="M1601.16 515.49L1601.16 515.49" stroke="#132e65" stroke-width="1.5"></path><path d="M1601.16 515.49L1578.83 701.23" stroke="#132e65" stroke-width="1.5"></path><path d="M1578.83 701.23L1578.83 701.23" stroke="#132e65" stroke-width="1.5"></path><path d="M1578.83 701.23L1413.77 493.75" stroke="#132e65" stroke-width="1.5"></path><circle r="5" cx="-86.04" cy="374.3" fill="#132e65"></circle><circle r="5" cx="-65.6" cy="529.99" fill="#132e65"></circle><circle r="5" cx="-69.94" cy="704.41" fill="#132e65"></circle><circle r="5" cx="84.41" cy="341.21" fill="#132e65"></circle><circle r="5" cx="78.23" cy="557.54" fill="#132e65"></circle><circle r="5" cx="198.31" cy="357.9" fill="#132e65"></circle><circle r="5" cx="261.13" cy="499.42" fill="#132e65"></circle><circle r="5" cx="200.94" cy="670.36" fill="#132e65"></circle><circle r="5" cx="379.65" cy="341.22" fill="#132e65"></circle><circle r="5" cx="338.22" cy="521.13" fill="#132e65"></circle><circle r="5" cx="352.03" cy="677.64" fill="#132e65"></circle><circle r="5" cx="490.31" cy="340.77" fill="#132e65"></circle><circle r="5" cx="536.01" cy="528.67" fill="#132e65"></circle><circle r="5" cx="507.02" cy="683.8" fill="#132e65"></circle><circle r="5" cx="642.17" cy="243.54" fill="#132e65"></circle><circle r="5" cx="637.72" cy="343.9" fill="#132e65"></circle><circle r="5" cx="654.95" cy="510.83" fill="#132e65"></circle><circle r="5" cx="704.53" cy="650.23" fill="#132e65"></circle><circle r="5" cx="855.27" cy="106.45" fill="#132e65"></circle><circle r="5" cx="848.95" cy="207.01" fill="#132e65"></circle><circle r="5" cx="840.78" cy="408.19" fill="#132e65"></circle><circle r="5" cx="839.58" cy="526.3" fill="#132e65"></circle><circle r="5" cx="831.96" cy="678.49" fill="#132e65"></circle><circle r="5" cx="938.64" cy="-43.73" fill="#132e65"></circle><circle r="5" cx="957.03" cy="92.72" fill="#132e65"></circle><circle r="5" cx="959.3" cy="188.98" fill="#132e65"></circle><circle r="5" cx="953.38" cy="384.46" fill="#132e65"></circle><circle r="5" cx="969.71" cy="551.74" fill="#132e65"></circle><circle r="5" cx="939.38" cy="669.78" fill="#132e65"></circle><circle r="5" cx="1088.6" cy="-42.84" fill="#132e65"></circle><circle r="5" cx="1114.81" cy="79.32" fill="#132e65"></circle><circle r="5" cx="1100.65" cy="358.9" fill="#132e65"></circle><circle r="5" cx="1142.58" cy="530.14" fill="#132e65"></circle><circle r="5" cx="1091.45" cy="663.71" fill="#132e65"></circle><circle r="5" cx="1291.89" cy="-110.31" fill="#132e65"></circle><circle r="5" cx="1302.25" cy="53.49" fill="#132e65"></circle><circle r="5" cx="1251.19" cy="215.32" fill="#132e65"></circle><circle r="5" cx="1270.22" cy="391.11" fill="#132e65"></circle><circle r="5" cx="1306.79" cy="556.51" fill="#132e65"></circle><circle r="5" cx="1449.92" cy="-40.74" fill="#132e65"></circle><circle r="5" cx="1445.45" cy="87.34" fill="#132e65"></circle><circle r="5" cx="1419.32" cy="215.28" fill="#132e65"></circle><circle r="5" cx="1439.77" cy="411.95" fill="#132e65"></circle><circle r="5" cx="1413.77" cy="493.75" fill="#132e65"></circle><circle r="5" cx="1411.84" cy="711.46" fill="#132e65"></circle><circle r="5" cx="1575.49" cy="-91.41" fill="#132e65"></circle><circle r="5" cx="1575.91" cy="46.5" fill="#132e65"></circle><circle r="5" cx="1612.18" cy="216.74" fill="#132e65"></circle><circle r="5" cx="1602.77" cy="368.23" fill="#132e65"></circle><circle r="5" cx="1601.16" cy="515.49" fill="#132e65"></circle><circle r="5" cx="1578.83" cy="701.23" fill="#132e65"></circle><path d="M-48.87 704.02L-48.87 704.02" stroke="hsl(228.5, 77.2%, 51.5%)" stroke-width="1.5"></path><path d="M-48.87 704.02L51.74 695.67" stroke="hsl(228.5, 77.2%, 51.5%)" stroke-width="1.5"></path><path d="M-48.87 704.02L-68.86 559.86" stroke="hsl(228.5, 77.2%, 51.5%)" stroke-width="1.5"></path><path d="M-48.87 704.02L72.93 508.42" stroke="hsl(228.5, 77.2%, 51.5%)" stroke-width="1.5"></path><path d="M-48.87 704.02L214.53 646.01" stroke="hsl(228.5, 77.2%, 51.5%)" stroke-width="1.5"></path><path d="M1283.05 -91.56L1283.05 -91.56" stroke="hsl(228.5, 77.2%, 51.5%)" stroke-width="1.5"></path><path d="M1283.05 -91.56L1411.8 -58.31" stroke="hsl(228.5, 77.2%, 51.5%)" stroke-width="1.5"></path><path d="M1283.05 -91.56L1287.61 55.65" stroke="hsl(228.5, 77.2%, 51.5%)" stroke-width="1.5"></path><path d="M1283.05 -91.56L1405.39 55.42" stroke="hsl(228.5, 77.2%, 51.5%)" stroke-width="1.5"></path><path d="M1283.05 -91.56L1556.99 -62.93" stroke="hsl(228.5, 77.2%, 51.5%)" stroke-width="1.5"></path><path d="M1283.05 -91.56L1246.78 255.66" stroke="hsl(228.5, 77.2%, 51.5%)" stroke-width="1.5"></path><path d="M1283.05 -91.56L1433.67 237.91" stroke="hsl(228.5, 77.2%, 51.5%)" stroke-width="1.5"></path><path d="M1274.41 537.28L1274.41 537.28" stroke="hsl(228.5, 77.2%, 51.5%)" stroke-width="1.5"></path><path d="M1274.41 537.28L1274.42 638.18" stroke="hsl(228.5, 77.2%, 51.5%)" stroke-width="1.5"></path><path d="M1274.41 537.28L1428.5 525.27" stroke="hsl(228.5, 77.2%, 51.5%)" stroke-width="1.5"></path><path d="M1274.41 537.28L1260.47 374.21" stroke="hsl(228.5, 77.2%, 51.5%)" stroke-width="1.5"></path><path d="M1274.41 537.28L1094.99 533.96" stroke="hsl(228.5, 77.2%, 51.5%)" stroke-width="1.5"></path><path d="M1274.41 537.28L1126.76 668.53" stroke="hsl(228.5, 77.2%, 51.5%)" stroke-width="1.5"></path><path d="M1274.41 537.28L1421.16 671.81" stroke="hsl(228.5, 77.2%, 51.5%)" stroke-width="1.5"></path><path d="M1428.5 525.27L1428.5 525.27" stroke="hsl(228.5, 77.2%, 51.5%)" stroke-width="1.5"></path><path d="M1428.5 525.27L1552.89 532.15" stroke="hsl(228.5, 77.2%, 51.5%)" stroke-width="1.5"></path><path d="M1428.5 525.27L1421.16 671.81" stroke="hsl(228.5, 77.2%, 51.5%)" stroke-width="1.5"></path><path d="M1421.16 671.81L1421.16 671.81" stroke="hsl(228.5, 77.2%, 51.5%)" stroke-width="1.5"></path><path d="M1421.16 671.81L1274.42 638.18" stroke="hsl(228.5, 77.2%, 51.5%)" stroke-width="1.5"></path><path d="M1421.16 671.81L1596.07 710.78" stroke="hsl(228.5, 77.2%, 51.5%)" stroke-width="1.5"></path><path d="M1421.16 671.81L1552.89 532.15" stroke="hsl(228.5, 77.2%, 51.5%)" stroke-width="1.5"></path><path d="M1569.75 339.72L1569.75 339.72" stroke="hsl(228.5, 77.2%, 51.5%)" stroke-width="1.5"></path><path d="M1569.75 339.72L1457.06 355.15" stroke="hsl(228.5, 77.2%, 51.5%)" stroke-width="1.5"></path><path d="M1569.75 339.72L1596.36 207.78" stroke="hsl(228.5, 77.2%, 51.5%)" stroke-width="1.5"></path><path d="M1569.75 339.72L1433.67 237.91" stroke="hsl(228.5, 77.2%, 51.5%)" stroke-width="1.5"></path><path d="M1569.75 339.72L1552.89 532.15" stroke="hsl(228.5, 77.2%, 51.5%)" stroke-width="1.5"></path><path d="M1569.75 339.72L1428.5 525.27" stroke="hsl(228.5, 77.2%, 51.5%)" stroke-width="1.5"></path><path d="M1569.75 339.72L1260.47 374.21" stroke="hsl(228.5, 77.2%, 51.5%)" stroke-width="1.5"></path><path d="M-68.86 559.86L-68.86 559.86" stroke="hsl(228.5, 77.2%, 51.5%)" stroke-width="1.5"></path><path d="M-68.86 559.86L72.93 508.42" stroke="hsl(228.5, 77.2%, 51.5%)" stroke-width="1.5"></path><path d="M72.93 508.42L72.93 508.42" stroke="hsl(228.5, 77.2%, 51.5%)" stroke-width="1.5"></path><path d="M72.93 508.42L239.63 509.25" stroke="hsl(228.5, 77.2%, 51.5%)" stroke-width="1.5"></path><path d="M72.93 508.42L51.74 695.67" stroke="hsl(228.5, 77.2%, 51.5%)" stroke-width="1.5"></path><path d="M72.93 508.42L214.53 646.01" stroke="hsl(228.5, 77.2%, 51.5%)" stroke-width="1.5"></path><path d="M51.74 695.67L51.74 695.67" stroke="hsl(228.5, 77.2%, 51.5%)" stroke-width="1.5"></path><path d="M51.74 695.67L214.53 646.01" stroke="hsl(228.5, 77.2%, 51.5%)" stroke-width="1.5"></path><path d="M51.74 695.67L-68.86 559.86" stroke="hsl(228.5, 77.2%, 51.5%)" stroke-width="1.5"></path><path d="M239.63 509.25L239.63 509.25" stroke="hsl(228.5, 77.2%, 51.5%)" stroke-width="1.5"></path><path d="M239.63 509.25L214.53 646.01" stroke="hsl(228.5, 77.2%, 51.5%)" stroke-width="1.5"></path><path d="M239.63 509.25L390.2 521.97" stroke="hsl(228.5, 77.2%, 51.5%)" stroke-width="1.5"></path><path d="M214.53 646.01L214.53 646.01" stroke="hsl(228.5, 77.2%, 51.5%)" stroke-width="1.5"></path><path d="M214.53 646.01L354.35 684.56" stroke="hsl(228.5, 77.2%, 51.5%)" stroke-width="1.5"></path><path d="M390.2 521.97L390.2 521.97" stroke="hsl(228.5, 77.2%, 51.5%)" stroke-width="1.5"></path><path d="M390.2 521.97L521.22 525.87" stroke="hsl(228.5, 77.2%, 51.5%)" stroke-width="1.5"></path><path d="M390.2 521.97L354.35 684.56" stroke="hsl(228.5, 77.2%, 51.5%)" stroke-width="1.5"></path><path d="M354.35 684.56L354.35 684.56" stroke="hsl(228.5, 77.2%, 51.5%)" stroke-width="1.5"></path><path d="M354.35 684.56L517.73 669.09" stroke="hsl(228.5, 77.2%, 51.5%)" stroke-width="1.5"></path><path d="M354.35 684.56L239.63 509.25" stroke="hsl(228.5, 77.2%, 51.5%)" stroke-width="1.5"></path><path d="M354.35 684.56L521.22 525.87" stroke="hsl(228.5, 77.2%, 51.5%)" stroke-width="1.5"></path><path d="M354.35 684.56L51.74 695.67" stroke="hsl(228.5, 77.2%, 51.5%)" stroke-width="1.5"></path><path d="M521.22 525.87L521.22 525.87" stroke="hsl(228.5, 77.2%, 51.5%)" stroke-width="1.5"></path><path d="M521.22 525.87L517.73 669.09" stroke="hsl(228.5, 77.2%, 51.5%)" stroke-width="1.5"></path><path d="M521.22 525.87L671.32 533.15" stroke="hsl(228.5, 77.2%, 51.5%)" stroke-width="1.5"></path><path d="M521.22 525.87L666.89 644.3" stroke="hsl(228.5, 77.2%, 51.5%)" stroke-width="1.5"></path><path d="M517.73 669.09L517.73 669.09" stroke="hsl(228.5, 77.2%, 51.5%)" stroke-width="1.5"></path><path d="M517.73 669.09L666.89 644.3" stroke="hsl(228.5, 77.2%, 51.5%)" stroke-width="1.5"></path><path d="M687.76 401.4L687.76 401.4" stroke="hsl(228.5, 77.2%, 51.5%)" stroke-width="1.5"></path><path d="M687.76 401.4L671.32 533.15" stroke="hsl(228.5, 77.2%, 51.5%)" stroke-width="1.5"></path><path d="M687.76 401.4L860.26 368.9" stroke="hsl(228.5, 77.2%, 51.5%)" stroke-width="1.5"></path><path d="M687.76 401.4L836.54 530.92" stroke="hsl(228.5, 77.2%, 51.5%)" stroke-width="1.5"></path><path d="M687.76 401.4L521.22 525.87" stroke="hsl(228.5, 77.2%, 51.5%)" stroke-width="1.5"></path><path d="M687.76 401.4L666.89 644.3" stroke="hsl(228.5, 77.2%, 51.5%)" stroke-width="1.5"></path><path d="M671.32 533.15L671.32 533.15" stroke="hsl(228.5, 77.2%, 51.5%)" stroke-width="1.5"></path><path d="M671.32 533.15L666.89 644.3" stroke="hsl(228.5, 77.2%, 51.5%)" stroke-width="1.5"></path><path d="M671.32 533.15L836.54 530.92" stroke="hsl(228.5, 77.2%, 51.5%)" stroke-width="1.5"></path><path d="M666.89 644.3L666.89 644.3" stroke="hsl(228.5, 77.2%, 51.5%)" stroke-width="1.5"></path><path d="M860.26 368.9L860.26 368.9" stroke="hsl(228.5, 77.2%, 51.5%)" stroke-width="1.5"></path><path d="M860.26 368.9L938.14 395.71" stroke="hsl(228.5, 77.2%, 51.5%)" stroke-width="1.5"></path><path d="M860.26 368.9L836.54 530.92" stroke="hsl(228.5, 77.2%, 51.5%)" stroke-width="1.5"></path><path d="M836.54 530.92L836.54 530.92" stroke="hsl(228.5, 77.2%, 51.5%)" stroke-width="1.5"></path><path d="M836.54 530.92L1002.36 498.27" stroke="hsl(228.5, 77.2%, 51.5%)" stroke-width="1.5"></path><path d="M854.96 699.54L854.96 699.54" stroke="hsl(228.5, 77.2%, 51.5%)" stroke-width="1.5"></path><path d="M854.96 699.54L990.21 678.21" stroke="hsl(228.5, 77.2%, 51.5%)" stroke-width="1.5"></path><path d="M854.96 699.54L836.54 530.92" stroke="hsl(228.5, 77.2%, 51.5%)" stroke-width="1.5"></path><path d="M938.14 395.71L938.14 395.71" stroke="hsl(228.5, 77.2%, 51.5%)" stroke-width="1.5"></path><path d="M938.14 395.71L1002.36 498.27" stroke="hsl(228.5, 77.2%, 51.5%)" stroke-width="1.5"></path><path d="M938.14 395.71L836.54 530.92" stroke="hsl(228.5, 77.2%, 51.5%)" stroke-width="1.5"></path><path d="M938.14 395.71L1131.98 391.49" stroke="hsl(228.5, 77.2%, 51.5%)" stroke-width="1.5"></path><path d="M938.14 395.71L1094.99 533.96" stroke="hsl(228.5, 77.2%, 51.5%)" stroke-width="1.5"></path><path d="M1002.36 498.27L1002.36 498.27" stroke="hsl(228.5, 77.2%, 51.5%)" stroke-width="1.5"></path><path d="M1002.36 498.27L1094.99 533.96" stroke="hsl(228.5, 77.2%, 51.5%)" stroke-width="1.5"></path><path d="M990.21 678.21L990.21 678.21" stroke="hsl(228.5, 77.2%, 51.5%)" stroke-width="1.5"></path><path d="M990.21 678.21L1126.76 668.53" stroke="hsl(228.5, 77.2%, 51.5%)" stroke-width="1.5"></path><path d="M990.21 678.21L1094.99 533.96" stroke="hsl(228.5, 77.2%, 51.5%)" stroke-width="1.5"></path><path d="M990.21 678.21L1002.36 498.27" stroke="hsl(228.5, 77.2%, 51.5%)" stroke-width="1.5"></path><path d="M990.21 678.21L836.54 530.92" stroke="hsl(228.5, 77.2%, 51.5%)" stroke-width="1.5"></path><path d="M1131.98 391.49L1131.98 391.49" stroke="hsl(228.5, 77.2%, 51.5%)" stroke-width="1.5"></path><path d="M1131.98 391.49L1260.47 374.21" stroke="hsl(228.5, 77.2%, 51.5%)" stroke-width="1.5"></path><path d="M1131.98 391.49L1094.99 533.96" stroke="hsl(228.5, 77.2%, 51.5%)" stroke-width="1.5"></path><path d="M1131.98 391.49L1002.36 498.27" stroke="hsl(228.5, 77.2%, 51.5%)" stroke-width="1.5"></path><path d="M1094.99 533.96L1094.99 533.96" stroke="hsl(228.5, 77.2%, 51.5%)" stroke-width="1.5"></path><path d="M1094.99 533.96L1126.76 668.53" stroke="hsl(228.5, 77.2%, 51.5%)" stroke-width="1.5"></path><path d="M1126.76 668.53L1126.76 668.53" stroke="hsl(228.5, 77.2%, 51.5%)" stroke-width="1.5"></path><path d="M1126.76 668.53L1274.42 638.18" stroke="hsl(228.5, 77.2%, 51.5%)" stroke-width="1.5"></path><path d="M1287.61 55.65L1287.61 55.65" stroke="hsl(228.5, 77.2%, 51.5%)" stroke-width="1.5"></path><path d="M1287.61 55.65L1405.39 55.42" stroke="hsl(228.5, 77.2%, 51.5%)" stroke-width="1.5"></path><path d="M1287.61 55.65L1411.8 -58.31" stroke="hsl(228.5, 77.2%, 51.5%)" stroke-width="1.5"></path><path d="M1287.61 55.65L1246.78 255.66" stroke="hsl(228.5, 77.2%, 51.5%)" stroke-width="1.5"></path><path d="M1246.78 255.66L1246.78 255.66" stroke="hsl(228.5, 77.2%, 51.5%)" stroke-width="1.5"></path><path d="M1246.78 255.66L1260.47 374.21" stroke="hsl(228.5, 77.2%, 51.5%)" stroke-width="1.5"></path><path d="M1246.78 255.66L1131.98 391.49" stroke="hsl(228.5, 77.2%, 51.5%)" stroke-width="1.5"></path><path d="M1246.78 255.66L1433.67 237.91" stroke="hsl(228.5, 77.2%, 51.5%)" stroke-width="1.5"></path><path d="M1246.78 255.66L1457.06 355.15" stroke="hsl(228.5, 77.2%, 51.5%)" stroke-width="1.5"></path><path d="M1246.78 255.66L1405.39 55.42" stroke="hsl(228.5, 77.2%, 51.5%)" stroke-width="1.5"></path><path d="M1260.47 374.21L1260.47 374.21" stroke="hsl(228.5, 77.2%, 51.5%)" stroke-width="1.5"></path><path d="M1274.42 638.18L1274.42 638.18" stroke="hsl(228.5, 77.2%, 51.5%)" stroke-width="1.5"></path><path d="M1274.42 638.18L1428.5 525.27" stroke="hsl(228.5, 77.2%, 51.5%)" stroke-width="1.5"></path><path d="M1274.42 638.18L1094.99 533.96" stroke="hsl(228.5, 77.2%, 51.5%)" stroke-width="1.5"></path><path d="M1411.8 -58.31L1411.8 -58.31" stroke="hsl(228.5, 77.2%, 51.5%)" stroke-width="1.5"></path><path d="M1411.8 -58.31L1405.39 55.42" stroke="hsl(228.5, 77.2%, 51.5%)" stroke-width="1.5"></path><path d="M1405.39 55.42L1405.39 55.42" stroke="hsl(228.5, 77.2%, 51.5%)" stroke-width="1.5"></path><path d="M1405.39 55.42L1433.67 237.91" stroke="hsl(228.5, 77.2%, 51.5%)" stroke-width="1.5"></path><path d="M1433.67 237.91L1433.67 237.91" stroke="hsl(228.5, 77.2%, 51.5%)" stroke-width="1.5"></path><path d="M1433.67 237.91L1457.06 355.15" stroke="hsl(228.5, 77.2%, 51.5%)" stroke-width="1.5"></path><path d="M1457.06 355.15L1457.06 355.15" stroke="hsl(228.5, 77.2%, 51.5%)" stroke-width="1.5"></path><path d="M1457.06 355.15L1428.5 525.27" stroke="hsl(228.5, 77.2%, 51.5%)" stroke-width="1.5"></path><path d="M1556.99 -62.93L1556.99 -62.93" stroke="hsl(228.5, 77.2%, 51.5%)" stroke-width="1.5"></path><path d="M1556.99 -62.93L1411.8 -58.31" stroke="hsl(228.5, 77.2%, 51.5%)" stroke-width="1.5"></path><path d="M1556.99 -62.93L1405.39 55.42" stroke="hsl(228.5, 77.2%, 51.5%)" stroke-width="1.5"></path><path d="M1556.99 -62.93L1596.36 207.78" stroke="hsl(228.5, 77.2%, 51.5%)" stroke-width="1.5"></path><path d="M1596.36 207.78L1596.36 207.78" stroke="hsl(228.5, 77.2%, 51.5%)" stroke-width="1.5"></path><path d="M1596.36 207.78L1433.67 237.91" stroke="hsl(228.5, 77.2%, 51.5%)" stroke-width="1.5"></path><path d="M1596.36 207.78L1457.06 355.15" stroke="hsl(228.5, 77.2%, 51.5%)" stroke-width="1.5"></path><path d="M1596.36 207.78L1405.39 55.42" stroke="hsl(228.5, 77.2%, 51.5%)" stroke-width="1.5"></path><path d="M1596.36 207.78L1411.8 -58.31" stroke="hsl(228.5, 77.2%, 51.5%)" stroke-width="1.5"></path><path d="M1552.89 532.15L1552.89 532.15" stroke="hsl(228.5, 77.2%, 51.5%)" stroke-width="1.5"></path><path d="M1552.89 532.15L1596.07 710.78" stroke="hsl(228.5, 77.2%, 51.5%)" stroke-width="1.5"></path><path d="M1596.07 710.78L1596.07 710.78" stroke="hsl(228.5, 77.2%, 51.5%)" stroke-width="1.5"></path><path d="M1596.07 710.78L1428.5 525.27" stroke="hsl(228.5, 77.2%, 51.5%)" stroke-width="1.5"></path><circle r="25" cx="-48.87" cy="704.02" fill="url(&quot;#SvgjsRadialGradient1001&quot;)"></circle><circle r="25" cx="1283.05" cy="-91.56" fill="url(&quot;#SvgjsRadialGradient1001&quot;)"></circle><circle r="25" cx="1274.41" cy="537.28" fill="url(&quot;#SvgjsRadialGradient1001&quot;)"></circle><circle r="25" cx="1428.5" cy="525.27" fill="url(&quot;#SvgjsRadialGradient1001&quot;)"></circle><circle r="25" cx="1421.16" cy="671.81" fill="url(&quot;#SvgjsRadialGradient1001&quot;)"></circle><circle r="25" cx="1569.75" cy="339.72" fill="url(&quot;#SvgjsRadialGradient1001&quot;)"></circle><circle r="5" cx="-68.86" cy="559.86" fill="#8b9ad9"></circle><circle r="5" cx="72.93" cy="508.42" fill="#8b9ad9"></circle><circle r="5" cx="51.74" cy="695.67" fill="#8b9ad9"></circle><circle r="5" cx="239.63" cy="509.25" fill="#8b9ad9"></circle><circle r="5" cx="214.53" cy="646.01" fill="#8b9ad9"></circle><circle r="5" cx="390.2" cy="521.97" fill="#8b9ad9"></circle><circle r="5" cx="354.35" cy="684.56" fill="#8b9ad9"></circle><circle r="5" cx="521.22" cy="525.87" fill="#8b9ad9"></circle><circle r="5" cx="517.73" cy="669.09" fill="#8b9ad9"></circle><circle r="5" cx="687.76" cy="401.4" fill="#8b9ad9"></circle><circle r="5" cx="671.32" cy="533.15" fill="#8b9ad9"></circle><circle r="5" cx="666.89" cy="644.3" fill="#8b9ad9"></circle><circle r="5" cx="860.26" cy="368.9" fill="#8b9ad9"></circle><circle r="5" cx="836.54" cy="530.92" fill="#8b9ad9"></circle><circle r="5" cx="854.96" cy="699.54" fill="#8b9ad9"></circle><circle r="5" cx="938.14" cy="395.71" fill="#8b9ad9"></circle><circle r="5" cx="1002.36" cy="498.27" fill="#8b9ad9"></circle><circle r="5" cx="990.21" cy="678.21" fill="#8b9ad9"></circle><circle r="5" cx="1131.98" cy="391.49" fill="#8b9ad9"></circle><circle r="5" cx="1094.99" cy="533.96" fill="#8b9ad9"></circle><circle r="5" cx="1126.76" cy="668.53" fill="#8b9ad9"></circle><circle r="5" cx="1287.61" cy="55.65" fill="#8b9ad9"></circle><circle r="5" cx="1246.78" cy="255.66" fill="#8b9ad9"></circle><circle r="5" cx="1260.47" cy="374.21" fill="#8b9ad9"></circle><circle r="5" cx="1274.42" cy="638.18" fill="#8b9ad9"></circle><circle r="5" cx="1411.8" cy="-58.31" fill="#8b9ad9"></circle><circle r="5" cx="1405.39" cy="55.42" fill="#8b9ad9"></circle><circle r="5" cx="1433.67" cy="237.91" fill="#8b9ad9"></circle><circle r="5" cx="1457.06" cy="355.15" fill="#8b9ad9"></circle><circle r="5" cx="1556.99" cy="-62.93" fill="#8b9ad9"></circle><circle r="5" cx="1596.36" cy="207.78" fill="#8b9ad9"></circle><circle r="5" cx="1552.89" cy="532.15" fill="#8b9ad9"></circle><circle r="5" cx="1596.07" cy="710.78" fill="#8b9ad9"></circle></g><defs><mask id="SvgjsMask1000"><rect width="1440" height="560" fill="#ffffff"></rect></mask><radialGradient id="SvgjsRadialGradient1001"><stop stop-color="#ffffff" offset="0.1"></stop><stop stop-color="#1735b3" offset="0.2"></stop><stop stop-color="rgba(23, 53, 179, 0)" offset="1"></stop></radialGradient></defs></svg>