<svg xmlns="http://www.w3.org/2000/svg" version="1.1" xmlns:xlink="http://www.w3.org/1999/xlink" xmlns:svgjs="http://svgjs.dev/svgjs" width="1440" height="560" preserveAspectRatio="none" viewBox="0 0 1440 560"><g mask="url(&quot;#SvgjsMask1000&quot;)" fill="none"><rect width="1440" height="560" x="0" y="0" fill="#0e2a47"></rect><path d="M 0,206 C 57.6,188.6 172.8,130.2 288,119 C 403.2,107.8 460.8,166.4 576,150 C 691.2,133.6 748.8,17.4 864,37 C 979.2,56.6 1036.8,231.2 1152,248 C 1267.2,264.8 1382.4,146.4 1440,121L1440 560L0 560z" fill="#184a7e"></path><path d="M 0,456 C 96,432.8 288,325.4 480,340 C 672,354.6 768,538 960,529 C 1152,520 1344,341.8 1440,295L1440 560L0 560z" fill="#2264ab"></path></g><defs><mask id="SvgjsMask1000"><rect width="1440" height="560" fill="#ffffff"></rect></mask></defs></svg>