<svg xmlns="http://www.w3.org/2000/svg" version="1.1" xmlns:xlink="http://www.w3.org/1999/xlink" xmlns:svgjs="http://svgjs.dev/svgjs" width="1440" height="250" preserveAspectRatio="none" viewBox="0 0 1440 250"><g mask="url(&quot;#SvgjsMask1000&quot;)" fill="none"><rect width="1440" height="250" x="0" y="0" fill="#0e2a47"></rect><path d="M15 250L265 0L328 0L78 250z" fill="url(&quot;#SvgjsLinearGradient1001&quot;)"></path><path d="M241.60000000000002 250L491.6 0L818.6 0L568.6 250z" fill="url(&quot;#SvgjsLinearGradient1001&quot;)"></path><path d="M503.20000000000005 250L753.2 0L1009.7 0L759.7 250z" fill="url(&quot;#SvgjsLinearGradient1001&quot;)"></path><path d="M732.8000000000001 250L982.8000000000001 0L1053.3000000000002 0L803.3000000000001 250z" fill="url(&quot;#SvgjsLinearGradient1001&quot;)"></path><path d="M1392 250L1142 0L1082 0L1332 250z" fill="url(&quot;#SvgjsLinearGradient1002&quot;)"></path><path d="M1189.4 250L939.4000000000001 0L766.9000000000001 0L1016.9000000000001 250z" fill="url(&quot;#SvgjsLinearGradient1002&quot;)"></path><path d="M932.8 250L682.8 0L574.8 0L824.8 250z" fill="url(&quot;#SvgjsLinearGradient1002&quot;)"></path><path d="M704.1999999999999 250L454.19999999999993 0L164.69999999999993 0L414.69999999999993 250z" fill="url(&quot;#SvgjsLinearGradient1002&quot;)"></path><path d="M1309.4066148339145 250L1440 119.40661483391455L1440 250z" fill="url(&quot;#SvgjsLinearGradient1001&quot;)"></path><path d="M0 250L130.59338516608545 250L 0 119.40661483391455z" fill="url(&quot;#SvgjsLinearGradient1002&quot;)"></path></g><defs><mask id="SvgjsMask1000"><rect width="1440" height="250" fill="#ffffff"></rect></mask><linearGradient x1="0%" y1="100%" x2="100%" y2="0%" id="SvgjsLinearGradient1001"><stop stop-color="rgba(15, 70, 185, 0.2)" offset="0"></stop><stop stop-opacity="0" stop-color="rgba(15, 70, 185, 0.2)" offset="0.66"></stop></linearGradient><linearGradient x1="100%" y1="100%" x2="0%" y2="0%" id="SvgjsLinearGradient1002"><stop stop-color="rgba(15, 70, 185, 0.2)" offset="0"></stop><stop stop-opacity="0" stop-color="rgba(15, 70, 185, 0.2)" offset="0.66"></stop></linearGradient></defs></svg>