<svg xmlns="http://www.w3.org/2000/svg" version="1.1" xmlns:xlink="http://www.w3.org/1999/xlink" xmlns:svgjs="http://svgjs.dev/svgjs" width="1440" height="560" preserveAspectRatio="none" viewBox="0 0 1440 560"><g mask="url(&quot;#SvgjsMask1000&quot;)" fill="none"><rect width="1440" height="560" x="0" y="0" fill="#0e2a47"></rect><path d="M 0,553 C 57.6,472.4 172.8,182.8 288,150 C 403.2,117.2 460.8,408 576,389 C 691.2,370 748.8,23 864,55 C 979.2,87 1036.8,554.6 1152,549 C 1267.2,543.4 1382.4,131.4 1440,27L1440 560L0 560z" fill="#184a7e"></path><path d="M 0,391 C 96,349.2 288,163 480,182 C 672,201 768,515.4 960,486 C 1152,456.6 1344,125.2 1440,35L1440 560L0 560z" fill="#2264ab"></path></g><defs><mask id="SvgjsMask1000"><rect width="1440" height="560" fill="#ffffff"></rect></mask></defs></svg>